<svg width="94" height="94" viewBox="0 0 94 94" fill="none" xmlns="http://www.w3.org/2000/svg">
<g filter="url(#filter0_d)">
<circle cx="47" cy="44" r="42" fill="url(#paint0_linear)"/>
</g>
<g clip-path="url(#clip0)">
<path d="M63.9688 47.7963L29.6001 44.7894C27.6077 44.6151 26.0623 42.7734 26.2366 40.781L27.7967 22.9491C27.971 20.9567 29.8127 19.4113 31.8051 19.5857L66.1738 22.5925C68.1662 22.7668 69.7116 24.6085 69.5373 26.6009L67.9772 44.4328C67.8029 46.4252 65.9612 47.9706 63.9688 47.7963ZM31.6308 21.578C30.7342 21.4996 29.8675 22.2268 29.7891 23.1234L28.229 40.9553C28.1506 41.8519 28.8778 42.7186 29.7744 42.797L64.1431 45.8039C65.0397 45.8823 65.9063 45.1551 65.9848 44.2585L67.5449 26.4266C67.6233 25.53 66.8961 24.6634 65.9995 24.5849L31.6308 21.578Z" fill="white"/>
<path d="M31.8587 24.7099C32.4639 24.7628 32.9974 24.3151 33.0504 23.7099C33.1033 23.1047 32.6556 22.5712 32.0504 22.5182C31.4452 22.4653 30.9117 22.913 30.8587 23.5182C30.8058 24.1234 31.2535 24.6569 31.8587 24.7099Z" fill="white"/>
<path d="M35.0465 24.9887C35.6517 25.0416 36.1853 24.5939 36.2382 23.9887C36.2912 23.3835 35.8435 22.85 35.2383 22.797C34.6331 22.7441 34.0995 23.1918 34.0466 23.797C33.9936 24.4022 34.4413 24.9357 35.0465 24.9887Z" fill="white"/>
<path d="M38.1347 25.2589C38.7399 25.3119 39.2735 24.8642 39.3264 24.259C39.3794 23.6538 38.9317 23.1203 38.3265 23.0673C37.7213 23.0144 37.1877 23.462 37.1348 24.0672C37.0818 24.6725 37.5295 25.206 38.1347 25.2589Z" fill="white"/>
<path d="M36.2184 36.836C36.0192 36.8185 35.8286 36.7015 35.6381 36.5844L31.144 32.8786C30.8626 32.6533 30.7891 32.3457 30.8153 32.0468C30.8414 31.748 31.0668 31.4665 31.2835 31.2847L36.3615 28.316C36.8858 28.0607 37.4748 28.2127 37.73 28.7369C37.9853 29.2611 37.8334 29.8501 37.3092 30.1054L33.505 32.2821L36.8734 35.0864C37.3453 35.4288 37.3927 36.0353 37.0502 36.5072C36.8336 36.689 36.5173 36.8621 36.2184 36.836Z" fill="white"/>
<path d="M44.6861 37.5767C44.3872 37.5506 44.1058 37.3252 43.924 37.1085C43.6687 36.5843 43.8206 35.9953 44.3449 35.74L48.149 33.5633L44.7806 30.759C44.2178 30.3083 44.1705 29.7018 44.5042 29.3295C44.8466 28.8576 45.453 28.8102 45.925 29.1527L50.4191 32.8585C50.7005 33.0838 50.774 33.3914 50.7479 33.6903C50.7217 33.9891 50.4963 34.2706 50.2797 34.4524L45.2103 37.3215C45.0933 37.512 44.8853 37.5942 44.6861 37.5767Z" fill="white"/>
<path d="M39.4062 37.1149C39.3066 37.1062 39.207 37.0975 39.1074 37.0887C38.6267 36.8459 38.3714 36.3217 38.5146 35.8323L41.0822 29.4317C41.3425 28.7518 41.9663 28.5053 42.447 28.7481C42.9277 28.9909 43.183 29.5151 43.0398 30.0045L40.4721 36.4051C40.3289 36.8945 39.9043 37.1585 39.4062 37.1149Z" fill="white"/>
<path d="M63.7247 50.5856L29.356 47.5787C27.3636 47.4044 25.5219 48.9498 25.3476 50.9421L24.3541 62.2988C24.1797 64.2912 25.7251 66.1329 27.7175 66.3072L62.0862 69.314C64.0786 69.4883 65.9203 67.943 66.0946 65.9506L67.0969 54.4944C67.2712 52.502 65.7171 50.7599 63.7247 50.5856ZM32.7892 50.7901C33.3869 50.8424 33.8414 51.3841 33.7891 51.9818C33.7368 52.5795 33.1952 53.0341 32.5975 52.9818C31.9997 52.9295 31.5452 52.3878 31.5975 51.7901C31.6498 51.1924 32.1915 50.7378 32.7892 50.7901ZM29.6014 50.5112C30.1991 50.5635 30.6536 51.1052 30.6013 51.7029C30.549 52.3006 30.0073 52.7552 29.4096 52.7029C28.8119 52.6506 28.3574 52.1089 28.4097 51.5112C28.462 50.9135 29.0037 50.459 29.6014 50.5112ZM33.7718 60.2116L29.335 62.7345C29.1271 62.8167 28.9191 62.8989 28.7199 62.8815C28.421 62.8553 28.1396 62.63 27.9578 62.4133C27.7025 61.889 27.8544 61.3 28.3787 61.0448L31.5503 59.2142L28.7447 56.8607C28.2728 56.5183 28.2254 55.9119 28.5679 55.4399C28.9103 54.968 29.5167 54.9206 29.9887 55.2631L33.92 58.5181C34.2014 58.7435 34.2749 59.0511 34.2487 59.3499C34.2226 59.6488 34.0881 60.0385 33.7718 60.2116ZM34.7853 52.069C34.8376 51.4713 35.3793 51.0167 35.977 51.069C36.5747 51.1213 37.0293 51.663 36.977 52.2607C36.9247 52.8584 36.383 53.313 35.7853 53.2607C35.0879 53.1997 34.733 52.6667 34.7853 52.069ZM41.0727 63.9622L35.1951 63.448C34.5974 63.3957 34.2338 62.9624 34.2861 62.3647C34.3384 61.7669 34.7717 61.4033 35.3695 61.4556L41.247 61.9698C41.8447 62.0221 42.2083 62.4555 42.156 63.0532C42.1037 63.6509 41.5708 64.0058 41.0727 63.9622Z" fill="white"/>
</g>
<defs>
<filter id="filter0_d" x="0" y="0" width="94" height="94" filterUnits="userSpaceOnUse" color-interpolation-filters="sRGB">
<feFlood flood-opacity="0" result="BackgroundImageFix"/>
<feColorMatrix in="SourceAlpha" type="matrix" values="0 0 0 0 0 0 0 0 0 0 0 0 0 0 0 0 0 0 127 0"/>
<feOffset dy="3"/>
<feGaussianBlur stdDeviation="2.5"/>
<feColorMatrix type="matrix" values="0 0 0 0 0 0 0 0 0 0 0 0 0 0 0 0 0 0 0.1 0"/>
<feBlend mode="normal" in2="BackgroundImageFix" result="effect1_dropShadow"/>
<feBlend mode="normal" in="SourceGraphic" in2="effect1_dropShadow" result="shape"/>
</filter>
<linearGradient id="paint0_linear" x1="23.5" y1="11.5" x2="70" y2="68.5" gradientUnits="userSpaceOnUse">
<stop stop-color="#FF4ECD"/>
<stop offset="1" stop-color="#A276FF"/>
</linearGradient>
<clipPath id="clip0">
<rect width="41.9" height="46.8" fill="white" transform="translate(28.1192 19.2632) rotate(5)"/>
</clipPath>
</defs>
</svg>
