<svg width="94" height="94" viewBox="0 0 94 94" fill="none" xmlns="http://www.w3.org/2000/svg">
<g filter="url(#filter0_d)">
<circle cx="47" cy="44" r="42" fill="url(#paint0_linear)"/>
</g>
<path d="M52.5425 40.4559C52.7778 37.7662 50.7779 35.3828 48.0882 35.1475L47.5901 35.1039L47.7644 33.1115C47.8167 32.5138 47.4531 32.0805 46.8554 32.0282C46.2577 31.9759 45.8243 32.3395 45.772 32.9372L45.5977 34.9296L42.7087 34.6769L42.8831 32.6845C42.9353 32.0868 42.5717 31.6534 41.974 31.6011C41.3763 31.5488 40.943 31.9125 40.8907 32.5102L40.7164 34.5026L36.8312 34.1627C36.2335 34.1104 35.8001 34.474 35.7478 35.0717C35.6955 35.6694 36.0592 36.1027 36.6569 36.155L38.0516 36.2771L37.4589 43.0512L36.8662 49.8253L35.4716 49.7033C34.8738 49.651 34.4405 50.0146 34.3882 50.6123C34.3359 51.21 34.6995 51.6434 35.2973 51.6957L39.0828 52.0269L38.9085 54.0193C38.8562 54.617 39.2198 55.0503 39.8175 55.1026C40.4152 55.1549 40.8486 54.7913 40.9009 54.1936L41.0752 52.2012L43.9641 52.4539L43.7898 54.4463C43.7375 55.044 44.1012 55.4774 44.6989 55.5297C45.2966 55.582 45.7299 55.2184 45.7822 54.6206L45.9565 52.6282L46.4546 52.6718C47.7497 52.7851 48.9887 52.3916 50.0633 51.5822C51.0383 50.7641 51.6497 49.5126 51.7631 48.2175C51.9025 46.6236 51.2276 45.1592 50.1106 44.1581C50.3185 44.0759 50.5352 43.8941 50.6435 43.8032C51.8265 42.9028 52.4292 41.751 52.5425 40.4559ZM49.8703 48.0519C49.8006 48.8489 49.4407 49.5201 48.7907 50.0655C48.249 50.52 47.4172 50.8488 46.6202 50.7791L38.7503 50.0905L39.2558 44.3126L47.1257 45.0011C48.828 45.0497 50.0097 46.458 49.8703 48.0519ZM39.6381 42.238L40.1436 36.4601L48.0135 37.1486C49.6074 37.2881 50.7892 38.6964 50.6497 40.2903C50.58 41.0873 50.2201 41.7585 49.6784 42.213C49.0372 42.6588 48.3137 42.8967 47.5167 42.8269L39.6468 42.1384L39.6381 42.238Z" fill="white"/>
<path d="M66.7034 38.0811L66.006 38.0201L66.9386 27.3608C67.1129 25.3684 65.5675 23.5267 63.5751 23.3524L30.7007 20.4763C28.7083 20.302 26.8666 21.8473 26.6923 23.8397L23.4763 60.5993C23.302 62.5917 24.8473 64.4334 26.8397 64.6077L59.8138 67.4926C61.8062 67.6669 63.6479 66.1215 63.8222 64.1291L64.7634 53.3702L65.4608 53.4312C67.1543 53.5794 68.671 52.3067 68.8192 50.6132L69.6123 41.5478C69.6695 39.746 68.4965 38.238 66.7034 38.0811ZM61.8298 63.9548C61.7513 64.8514 60.8847 65.5786 59.9881 65.5002L27.014 62.6153C26.1175 62.5369 25.3902 61.6702 25.4687 60.7736L28.6847 24.014C28.7632 23.1175 29.6298 22.3902 30.5264 22.4687L63.5005 25.3535C64.397 25.432 65.1243 26.2987 65.0458 27.1952L64.1045 37.9541L59.6217 37.5619C57.9281 37.4138 56.4114 38.6864 56.2633 40.3799L55.4702 49.4453C55.322 51.1389 56.5946 52.6555 58.2882 52.8037L62.6714 53.1872L61.7302 63.9461L61.8298 63.9548ZM66.7272 50.4302C66.6749 51.0279 66.1332 51.4824 65.5355 51.4301L63.8419 51.282L58.4625 50.8113C57.8648 50.759 57.4103 50.2173 57.4626 49.6196L58.2557 40.5543C58.308 39.9565 58.8496 39.502 59.4474 39.5543L64.8268 40.025L66.5203 40.1731C67.118 40.2254 67.5726 40.7671 67.5203 41.3648L66.7272 50.4302Z" fill="white"/>
<defs>
<filter id="filter0_d" x="0" y="0" width="94" height="94" filterUnits="userSpaceOnUse" color-interpolation-filters="sRGB">
<feFlood flood-opacity="0" result="BackgroundImageFix"/>
<feColorMatrix in="SourceAlpha" type="matrix" values="0 0 0 0 0 0 0 0 0 0 0 0 0 0 0 0 0 0 127 0"/>
<feOffset dy="3"/>
<feGaussianBlur stdDeviation="2.5"/>
<feColorMatrix type="matrix" values="0 0 0 0 0 0 0 0 0 0 0 0 0 0 0 0 0 0 0.1 0"/>
<feBlend mode="normal" in2="BackgroundImageFix" result="effect1_dropShadow"/>
<feBlend mode="normal" in="SourceGraphic" in2="effect1_dropShadow" result="shape"/>
</filter>
<linearGradient id="paint0_linear" x1="23.5" y1="11.5" x2="70" y2="68.5" gradientUnits="userSpaceOnUse">
<stop stop-color="#FF4ECD"/>
<stop offset="1" stop-color="#A276FF"/>
</linearGradient>
</defs>
</svg>
