<svg width="94" height="94" viewBox="0 0 94 94" fill="none" xmlns="http://www.w3.org/2000/svg">
<g filter="url(#filter0_d)">
<circle cx="47" cy="44" r="42" fill="url(#paint0_linear)"/>
</g>
<path d="M55.2464 45.4268L50.3652 53.0303C50.1311 53.4113 50.1871 53.9181 50.6591 54.2606L54.6426 56.9179C54.9328 57.0436 55.2316 57.0698 55.4396 56.9876L59.8241 55.0624C60.24 54.898 60.4828 54.4174 60.3271 53.9018L56.8403 45.5662C56.4942 44.9336 55.5976 44.8552 55.2464 45.4268Z" fill="white"/>
<path d="M59.8191 56.2665L55.335 58.183C55.0274 58.2565 54.7286 58.2303 54.538 58.1133L50.4549 55.4473C50.2643 55.3302 50.0477 55.512 50.2295 55.7287L53.8906 62.0719C54.1458 62.5962 54.9428 62.6659 55.2852 62.1939L59.9922 56.5828C60.1005 56.4919 59.9187 56.2752 59.8191 56.2665Z" fill="white"/>
<path d="M64.9554 25.0956L57.4839 24.4419L57.3096 26.4343L64.7811 27.088C65.6776 27.1664 66.4049 28.0331 66.3264 28.9297L63.1104 65.6893C63.0319 66.5858 62.1653 67.3131 61.2687 67.2346L28.8923 64.4021C27.9958 64.3236 27.2685 63.4569 27.347 62.5604L30.563 25.8008C30.6415 24.9042 31.5081 24.177 32.4047 24.2554L39.8762 24.9091L40.0505 22.9167L32.579 22.263C30.5866 22.0887 28.7537 23.5345 28.5706 25.6265L25.3546 62.3861C25.1803 64.3784 26.7256 66.2201 28.718 66.3945L61.0944 69.227C63.0868 69.4013 64.9284 67.856 65.1028 65.8636L68.3188 29.104C68.4022 27.0033 66.9478 25.2699 64.9554 25.0956Z" fill="white"/>
<path d="M40.7939 25.8929C40.7068 26.8891 41.434 27.7558 42.4302 27.8429L54.2849 28.8801C55.2811 28.9672 56.1478 28.24 56.235 27.2438L56.6707 22.2628C56.6969 21.964 56.5151 21.7473 56.2162 21.7212L41.7714 20.4574C41.4725 20.4312 41.2559 20.6131 41.2297 20.9119L40.7939 25.8929Z" fill="white"/>
<path d="M34.8131 32.2959C34.7608 32.8936 35.1244 33.3269 35.7222 33.3792L59.8301 35.4884C60.4278 35.5407 60.8611 35.1771 60.9134 34.5794C60.9657 33.9816 60.6021 33.5483 60.0044 33.496L35.8965 31.3868C35.3984 31.3433 34.8654 31.6982 34.8131 32.2959Z" fill="white"/>
<path d="M35.1556 39.8546L59.2636 41.9637C59.8613 42.016 60.2946 41.6524 60.3469 41.0547C60.3992 40.457 60.0356 40.0236 59.4379 39.9713L35.33 37.8622C34.7322 37.8099 34.2989 38.1735 34.2466 38.7712C34.1943 39.3689 34.6575 39.811 35.1556 39.8546Z" fill="white"/>
<path d="M46.8087 45.4916L34.7547 44.437C34.157 44.3847 33.7237 44.7483 33.6714 45.346C33.6191 45.9438 33.9827 46.3771 34.5804 46.4294L46.6344 47.484C47.2321 47.5363 47.6654 47.1727 47.7177 46.5749C47.77 45.9772 47.4064 45.5439 46.8087 45.4916Z" fill="white"/>
<path d="M46.2422 51.9669L34.1882 50.9124C33.5905 50.8601 33.1572 51.2237 33.1049 51.8214C33.0526 52.4191 33.4162 52.8524 34.0139 52.9047L46.0679 53.9593C46.6656 54.0116 47.0989 53.648 47.1512 53.0503C47.2035 52.4526 46.8399 52.0192 46.2422 51.9669Z" fill="white"/>
<defs>
<filter id="filter0_d" x="0" y="0" width="94" height="94" filterUnits="userSpaceOnUse" color-interpolation-filters="sRGB">
<feFlood flood-opacity="0" result="BackgroundImageFix"/>
<feColorMatrix in="SourceAlpha" type="matrix" values="0 0 0 0 0 0 0 0 0 0 0 0 0 0 0 0 0 0 127 0"/>
<feOffset dy="3"/>
<feGaussianBlur stdDeviation="2.5"/>
<feColorMatrix type="matrix" values="0 0 0 0 0 0 0 0 0 0 0 0 0 0 0 0 0 0 0.1 0"/>
<feBlend mode="normal" in2="BackgroundImageFix" result="effect1_dropShadow"/>
<feBlend mode="normal" in="SourceGraphic" in2="effect1_dropShadow" result="shape"/>
</filter>
<linearGradient id="paint0_linear" x1="23.5" y1="11.5" x2="70" y2="68.5" gradientUnits="userSpaceOnUse">
<stop stop-color="#FF4ECD"/>
<stop offset="1" stop-color="#A276FF"/>
</linearGradient>
</defs>
</svg>
