<svg width="94" height="94" viewBox="0 0 94 94" fill="none" xmlns="http://www.w3.org/2000/svg">
<g filter="url(#filter0_d)">
<circle cx="47" cy="44" r="42" fill="url(#paint0_linear)"/>
</g>
<g clip-path="url(#clip0)">
<path d="M31.1902 37.7718L33.0819 48.2766C33.1466 48.6838 33.519 49.0176 34.0171 49.0611L37.703 49.3836C38.0018 49.4098 38.3094 49.3363 38.5348 49.0549C38.7515 48.873 38.8859 48.4833 38.8125 48.1757L36.9769 38.1777L37.2757 38.2038L48.7557 43.5246C48.8553 43.5333 48.9462 43.6417 49.0458 43.6504C49.2451 43.6678 49.453 43.5856 49.661 43.5034C49.9773 43.3303 50.103 43.0402 50.1292 42.7413L50.4516 39.0554C52.007 38.4888 53.1775 36.5836 53.3953 34.0931C53.6132 31.6026 52.7914 29.5231 51.3494 28.7946L51.6718 25.1087C51.698 24.8098 51.5249 24.4936 51.3431 24.2769C51.1613 24.0602 50.7715 23.9257 50.4639 23.9992L38.2257 27.3453L31.9497 26.7962C28.9611 26.5348 26.2527 28.8074 25.9913 31.7959C25.7298 34.7845 28.0024 37.4929 30.991 37.7544L31.1902 37.7718ZM36.5822 47.2779L34.9883 47.1385L33.2822 37.9548L34.8761 38.0943L36.5822 47.2779ZM51.3942 34.0184C51.3071 35.0146 51.0294 35.8937 50.6783 36.4653L51.114 31.4843C51.3606 32.1082 51.4901 32.9226 51.3942 34.0184ZM49.296 29.3176L48.5203 38.1838L48.2588 41.1724L38.6106 36.7145L39.273 29.1434L49.5574 26.3291L49.296 29.3176ZM27.9837 31.9703C28.1493 30.0775 29.8826 28.623 31.7754 28.7886L37.2545 29.268L36.6444 36.2413L35.8474 36.1716L32.1615 35.8491L31.1653 35.762C29.2725 35.5964 27.8181 33.863 27.9837 31.9703Z" fill="white"/>
<path d="M70.8386 25.1796C70.5572 24.9542 70.1587 24.9193 69.8511 24.9928L56.9841 29.7896C56.6678 29.9627 56.4424 30.2441 56.3166 30.5343C56.2818 30.9328 56.3553 31.2403 56.7363 31.4744L60.304 34.2961L52.1204 53.255L45.0026 47.4124C44.6302 47.0787 44.1234 47.1347 43.6988 47.3987L27.08 61.8051C26.6466 62.1688 26.5943 62.7665 26.9579 63.1998C27.1397 63.4165 27.4299 63.5422 27.6291 63.5597C27.8284 63.5771 28.0363 63.4949 28.2443 63.4127L43.5183 52.904L51.346 59.8125C51.5278 60.0291 51.8266 60.0553 52.1255 60.0814C52.4244 60.1076 52.641 59.9258 52.8664 59.6443L66.2052 39.1288L67.9847 40.5895C68.1752 40.7065 68.3657 40.8236 68.4653 40.8323C68.6646 40.8497 68.7642 40.8584 68.9722 40.7763C69.2884 40.6032 69.5138 40.3217 69.5487 39.9233L71.267 26.0201C71.2931 25.7213 71.1287 25.3053 70.8386 25.1796Z" fill="white"/>
</g>
<defs>
<filter id="filter0_d" x="0" y="0" width="94" height="94" filterUnits="userSpaceOnUse" color-interpolation-filters="sRGB">
<feFlood flood-opacity="0" result="BackgroundImageFix"/>
<feColorMatrix in="SourceAlpha" type="matrix" values="0 0 0 0 0 0 0 0 0 0 0 0 0 0 0 0 0 0 127 0"/>
<feOffset dy="3"/>
<feGaussianBlur stdDeviation="2.5"/>
<feColorMatrix type="matrix" values="0 0 0 0 0 0 0 0 0 0 0 0 0 0 0 0 0 0 0.1 0"/>
<feBlend mode="normal" in2="BackgroundImageFix" result="effect1_dropShadow"/>
<feBlend mode="normal" in="SourceGraphic" in2="effect1_dropShadow" result="shape"/>
</filter>
<linearGradient id="paint0_linear" x1="23.5" y1="11.5" x2="70" y2="68.5" gradientUnits="userSpaceOnUse">
<stop stop-color="#FF4ECD"/>
<stop offset="1" stop-color="#A276FF"/>
</linearGradient>
<clipPath id="clip0">
<rect width="44.6" height="42.2" fill="white" transform="translate(26.9238 21.1367) rotate(5)"/>
</clipPath>
</defs>
</svg>
