<svg xmlns="http://www.w3.org/2000/svg" xmlns:xlink="http://www.w3.org/1999/xlink" viewBox="0 0 500 499.94"><defs><style>.cls-1{fill:none;}.cls-2{isolation:isolate;}.cls-3{mix-blend-mode:color;fill:url(#linear-gradient);}.cls-4{fill:#fff;}.cls-5{opacity:0.5;}.cls-6{clip-path:url(#clip-path);}</style><linearGradient id="linear-gradient" x1="102.27" y1="102.2" x2="408.65" y2="408.59" gradientUnits="userSpaceOnUse"><stop offset="0" stop-color="#ff4ecd"/><stop offset="0.22" stop-color="#e858d9"/><stop offset="0.74" stop-color="#b66ef4"/><stop offset="1" stop-color="#a276ff"/></linearGradient><clipPath id="clip-path"><path class="cls-1" d="M1217.92,412.75C1128,502.7,1006.48,527,946.57,467c-19.79-19.7-30.42-46.23-32.55-76-29.77-2.13-56.3-12.76-76-32.54-60-59.91-35.69-181.4,54.27-271.36S1103.74-27,1163.65,32.85c19.69,19.79,30.42,46.23,32.54,76.09,29.86,2.13,56.31,12.76,76,32.46C1332.19,201.4,1307.88,322.88,1217.92,412.75Z"/></clipPath></defs><g class="cls-2"><g id="Layer_1" data-name="Layer 1"><path class="cls-3" d="M412.81,412.75C322.85,502.7,201.37,527,141.46,467c-19.79-19.7-30.42-46.23-32.54-76-29.77-2.13-56.31-12.76-76-32.54-60-59.91-35.69-181.4,54.27-271.35S298.63-27,358.54,32.86C378.23,52.64,389,79.08,391.08,109c29.87,2.12,56.31,12.75,76,32.45C527.08,201.4,502.77,322.88,412.81,412.75Z"/><path class="cls-4" d="M91.43,180.09q9.81,0,15.93,5.68a19,19,0,0,1,6.13,14.63,18.82,18.82,0,0,1-6.2,14.65q-6.21,5.61-16.36,5.6h-13V250H64.42V180.09Zm-3.35,30c3.6,0,6.41-.82,8.43-2.48s3-4.09,3-7.32q0-9.66-12.4-9.66H77.92V210.1Z"/><path class="cls-4" d="M135.4,180.09V250H123.09V180.09Z"/><path class="cls-4" d="M160,203.24v28.92q0,4.56,2.27,6.93a8,8,0,0,0,6,2.37,10.66,10.66,0,0,0,6-1.89,13.79,13.79,0,0,0,4.6-5.36v-31h12.3V250h-12.3v-6.36q-6.66,7.26-14.41,7.26a15.8,15.8,0,0,1-12.1-4.9q-4.6-4.91-4.61-12.81V203.24Z"/><path class="cls-4" d="M230.49,202.35a15.94,15.94,0,0,1,9.13,2.52,15.51,15.51,0,0,1,5.57,6.78,29.24,29.24,0,0,1,7.88-7.08,17.25,17.25,0,0,1,8.63-2.22,15.71,15.71,0,0,1,12,4.82c3,3.23,4.55,7.51,4.55,12.89V250H265.9V222.11a12.64,12.64,0,0,0-2.07-7.66,7.07,7.07,0,0,0-6-2.8q-5.66,0-10.85,7.26V250H234.69V221.91q0-4.82-2.2-7.53a7.19,7.19,0,0,0-5.9-2.73,9.58,9.58,0,0,0-5.51,1.72,25,25,0,0,0-5.35,5.54V250h-12.3V203.24h12.3v6.56a24.78,24.78,0,0,1,6.81-5.63A16.8,16.8,0,0,1,230.49,202.35Z"/><path class="cls-4" d="M302.42,180.09v26.16a20.72,20.72,0,0,1,12.36-3.9,21.15,21.15,0,0,1,11.18,3,20.45,20.45,0,0,1,7.8,8.5,26.67,26.67,0,0,1,2.78,12.23q0,11.5-6.86,18.13t-18.76,6.63a56.7,56.7,0,0,1-20.8-4V180.09Zm0,60.13a28.75,28.75,0,0,0,9.21,1.34,10.92,10.92,0,0,0,9-4.12c2.22-2.76,3.33-6.56,3.33-11.43q0-6.6-3.35-10.53a11.07,11.07,0,0,0-8.85-3.93,11.59,11.59,0,0,0-4.71.95,21.26,21.26,0,0,0-4.6,2.95Z"/><path class="cls-4" d="M358.19,203.24v28.92q0,4.56,2.28,6.93a8,8,0,0,0,6,2.37,10.63,10.63,0,0,0,6-1.89,13.79,13.79,0,0,0,4.6-5.36v-31h12.3V250h-12.3v-6.36q-6.65,7.26-14.41,7.26a15.82,15.82,0,0,1-12.1-4.9q-4.6-4.91-4.6-12.81V203.24Z"/><path class="cls-4" d="M444.78,203.24V212h-8a16.8,16.8,0,0,1,2.73,4.43,12.07,12.07,0,0,1,.78,4.37A14.94,14.94,0,0,1,436.07,231q-3.69,4.05-12.7,5.25a24.17,24.17,0,0,0-6.43,1.37,2.53,2.53,0,0,0-1.57,2.38c0,1,.64,1.71,1.92,2.23a32.07,32.07,0,0,0,6.18,1.47Q434,245.42,439,248.92a10.81,10.81,0,0,1,5,9.26,12.81,12.81,0,0,1-6.06,11.37c-4,2.66-9.83,4-17.4,4q-10.75,0-17.11-3.74t-6.35-10.06q0-8.9,12.25-12.31c-3.53-1.52-5.3-3.55-5.3-6q0-4.89,8-6.75v-.2a16.74,16.74,0,0,1-8.68-5.35,13.6,13.6,0,0,1-3.23-9,14.91,14.91,0,0,1,5.7-12.18q5.7-4.63,14.91-4.64Zm-36.27,55.93q0,6.25,12.51,6.26a17.44,17.44,0,0,0,8.48-1.73c2.05-1.16,3.07-2.66,3.07-4.53,0-2.07-1.16-3.62-3.47-4.68s-5.6-1.57-9.83-1.57a15,15,0,0,0-7.76,1.78C409.52,255.88,408.51,257.37,408.51,259.17Zm3-39a8,8,0,0,0,2.57,6.07,8.82,8.82,0,0,0,6.28,2.43,8.31,8.31,0,0,0,6.25-2.53,8.79,8.79,0,0,0,2.45-6.37,7.51,7.51,0,0,0-2.55-5.78,8.81,8.81,0,0,0-6.15-2.33,8.62,8.62,0,0,0-6.28,2.53A8.08,8.08,0,0,0,411.47,220.16Z"/><path class="cls-4" d="M84.68,261.65a40.91,40.91,0,0,1,19.66,5.1v12q-10.86-6.56-19.26-6.54-5.1,0-8,2a6.12,6.12,0,0,0-2.88,5.29q0,3.94,5.36,7.3c1,.67,4.85,2.53,11.55,5.6q8.61,4,12.4,9a18.92,18.92,0,0,1,3.81,11.9,18.18,18.18,0,0,1-6.48,14.53q-6.48,5.54-16.78,5.53a39.83,39.83,0,0,1-11.53-1.48,49.82,49.82,0,0,1-10.83-5.08v-13.3q11.2,9.3,21.11,9.3a13.69,13.69,0,0,0,8-2.14,6.68,6.68,0,0,0,3-5.71q0-4.85-5.3-7.9c-2.94-1.61-6.72-3.52-11.36-5.76Q69,297.51,64.9,292.51a17.8,17.8,0,0,1-4.08-11.6,17,17,0,0,1,6.55-14Q73.92,261.65,84.68,261.65Z"/><path class="cls-4" d="M130.4,273.3h1v12.4h16V295h-16v21.56a6.63,6.63,0,0,0,7.1,7.05q4.31,0,9.9-3.1v9.86a30.86,30.86,0,0,1-12.5,2.95q-7.91,0-12.33-4.31t-4.43-11.65V295h-7.3v-2Z"/><path class="cls-4" d="M167.26,285.7v28.92q0,4.56,2.28,6.93a8,8,0,0,0,6,2.37,10.63,10.63,0,0,0,6-1.89,13.87,13.87,0,0,0,4.6-5.36v-31h12.31v46.73H186.12v-6.36q-6.65,7.26-14.41,7.26a15.82,15.82,0,0,1-12.1-4.9q-4.61-4.9-4.6-12.81V285.7Z"/><path class="cls-4" d="M242.3,286.76V262.54h12.25v69.89H232.94q-11.2,0-17.93-6.46t-6.73-17.6a23.59,23.59,0,0,1,3.12-12,22.62,22.62,0,0,1,8.61-8.48,23.78,23.78,0,0,1,11.83-3.07A31.67,31.67,0,0,1,242.3,286.76ZM235.84,323h6.46V296a17.13,17.13,0,0,0-7.91-1.95,13,13,0,0,0-9.83,3.85A14,14,0,0,0,220.88,308Q220.88,323,235.84,323Z"/><path class="cls-4" d="M273.4,264.1a7,7,0,0,1,7,6.95,6.89,6.89,0,0,1-2,4.88,6.7,6.7,0,0,1-9.8,0,6.78,6.78,0,0,1-2.08-4.88,6.57,6.57,0,0,1,2.11-4.93A6.74,6.74,0,0,1,273.4,264.1Zm6.16,21.6v46.73h-12.3V285.7Z"/><path class="cls-4" d="M315.42,284.81a28.58,28.58,0,0,1,13.26,3.05,22.18,22.18,0,0,1,9.2,8.55,24,24,0,0,1,3.26,12.46,25.12,25.12,0,0,1-3.13,12.7,22,22,0,0,1-9.21,8.61,28.75,28.75,0,0,1-13.38,3.15,28.39,28.39,0,0,1-13.35-3.15,22.11,22.11,0,0,1-9.13-8.61,25.12,25.12,0,0,1-3.13-12.7,23.8,23.8,0,0,1,3.3-12.53,22.48,22.48,0,0,1,9.21-8.51A28.23,28.23,0,0,1,315.42,284.81Zm-12.7,24.06q0,7,3.43,11.18a11.25,11.25,0,0,0,9.17,4.17,11.84,11.84,0,0,0,9.46-4q3.45-4,3.45-11.46,0-7.1-3.48-11a12,12,0,0,0-9.43-3.87,11.38,11.38,0,0,0-9.1,4.1Q302.71,302.12,302.72,308.87Z"/><g class="cls-5"><g class="cls-6"><image width="4532" height="2550" transform="matrix(0.39, 0.39, -0.39, 0.39, 1373.97, -942.43)" xlink:href="../../../../Downloads/stroke-background-bright-blue-paint/134.jpg"/></g></g></g></g></svg>